<svg xmlns="http://www.w3.org/2000/svg" width="24" height="24" viewBox="0 0 24 24" fill="none" stroke="#00A0A0" stroke-width="2" stroke-linecap="round" stroke-linejoin="round">
  <path d="M19 22v-6h-2v6h2Z"></path>
  <path d="M7 22v-6h2v6H7Z"></path>
  <path d="M17 19v-8"></path>
  <path d="M8 11v8"></path>
  <path d="M9 11h7"></path>
  <path d="M12 2v3"></path>
  <path d="M15 5h-3"></path>
  <path d="M18 11c-.966 0-1.768-.554-2.322-1.188C15.08 9.14 15 8.5 15 8c0-.534.218-.977.479-1.378.261-.4.571-.773.818-1.169.473-.756.705-1.683.761-2.95.02-.45.2-.783.442-.783s.422.332.442.783c.056 1.267.289 2.194.762 2.95.246.396.556.769.817 1.169.26.401.478.844.478 1.378 0 .5-.08 1.14-.677 1.813C19.768 10.446 18.967 11 18 11Z"></path>
  <path d="M6 11c.967 0 1.768-.554 2.322-1.188C8.92 9.14 9 8.5 9 8c0-.534-.218-.977-.479-1.378-.261-.4-.571-.773-.818-1.169-.473-.756-.705-1.683-.761-2.95C6.92 2.053 6.74 1.72 6.5 1.72s-.422.332-.442.783c-.056 1.267-.289 2.194-.762 2.95-.246.396-.556.769-.817 1.169C4.218 7.023 4 7.466 4 8c0 .5.08 1.14.677 1.813C5.232 10.446 6.033 11 7 11Z"></path>
</svg>